<?xml version="1.0" encoding="UTF-8"?>
<!DOCTYPE svg PUBLIC "-//W3C//DTD SVG 1.1//EN" "http://www.w3.org/Graphics/SVG/1.1/DTD/svg11.dtd">
<svg xmlns="http://www.w3.org/2000/svg" version="1.1" width="2048px" height="2048px" style="shape-rendering:geometricPrecision; text-rendering:geometricPrecision; image-rendering:optimizeQuality; fill-rule:evenodd; clip-rule:evenodd" xmlns:xlink="http://www.w3.org/1999/xlink">
<g><path style="opacity:1" fill="#0d2a56" d="M 754.5,702.5 C 754.5,915.167 754.5,1127.83 754.5,1340.5C 749.91,1354.68 740.91,1365.02 727.5,1371.5C 509.5,1370.17 291.5,1370.17 73.5,1371.5C 59.5574,1364.89 50.2241,1354.22 45.5,1339.5C 46.8333,1127.17 46.8333,914.833 45.5,702.5C 52.938,683.602 66.2714,670.768 85.5,664C 295.167,663.333 504.833,663.333 714.5,664C 733.894,670.561 747.227,683.394 754.5,702.5 Z"/></g>
<g><path style="opacity:1" fill="#5cec90" d="M 678.5,682.5 C 638.519,681.904 598.519,682.404 558.5,684C 434.16,686.178 309.827,685.844 185.5,683C 154.987,682.334 124.654,681.167 94.5,679.5C 288.832,678.407 483.165,678.24 677.5,679C 678.337,680.011 678.67,681.178 678.5,682.5 Z"/></g>
<g><path style="opacity:1" fill="#fdfdfd" d="M 94.5,679.5 C 124.654,681.167 154.987,682.334 185.5,683C 309.827,685.844 434.16,686.178 558.5,684C 598.519,682.404 638.519,681.904 678.5,682.5C 680.104,683.287 680.771,684.62 680.5,686.5C 681.626,690.954 683.959,694.621 687.5,697.5C 699.68,714.365 710.68,732.032 720.5,750.5C 687.002,751.332 653.336,751.832 619.5,752C 457.834,752.5 296.167,752.667 134.5,752.5C 119.355,728.223 103.688,704.223 87.5,680.5C 89.7427,679.526 92.076,679.192 94.5,679.5 Z"/></g>
<g><path style="opacity:1" fill="#63cd90" d="M 680.5,686.5 C 684.078,689.311 686.411,692.978 687.5,697.5C 683.959,694.621 681.626,690.954 680.5,686.5 Z"/></g>
<g><path style="opacity:0.939" fill="#fefffe" d="M 821.5,691.5 C 1216.17,691.5 1610.83,691.5 2005.5,691.5C 2005.5,708.5 2005.5,725.5 2005.5,742.5C 1989.83,742.5 1974.17,742.5 1958.5,742.5C 1936.56,861.878 1914.22,981.212 1891.5,1100.5C 1871.88,1101.49 1852.21,1101.82 1832.5,1101.5C 1855.45,981.759 1878.78,862.093 1902.5,742.5C 1861.17,742.5 1819.83,742.5 1778.5,742.5C 1756.56,861.878 1734.22,981.212 1711.5,1100.5C 1691.88,1101.49 1672.21,1101.82 1652.5,1101.5C 1666.9,1027.48 1681.57,953.481 1696.5,879.5C 1696.17,877.833 1695.83,876.167 1695.5,874.5C 1669.98,879.23 1645.64,887.564 1622.5,899.5C 1605,910.327 1590,923.994 1577.5,940.5C 1572.17,948.5 1566.83,956.5 1561.5,964.5C 1556.68,974.817 1551.34,984.817 1545.5,994.5C 1544.38,995.544 1543.04,996.21 1541.5,996.5C 1536.72,994.944 1532.39,992.611 1528.5,989.5C 1518.86,981.678 1508.86,974.345 1498.5,967.5C 1497.46,966.377 1496.79,965.044 1496.5,963.5C 1506.04,940.076 1518.37,918.41 1533.5,898.5C 1537.5,894.5 1541.5,890.5 1545.5,886.5C 1546.43,885.311 1546.76,883.978 1546.5,882.5C 1508.03,865.964 1472.03,870.297 1438.5,895.5C 1408.2,922.398 1395.2,956.065 1399.5,996.5C 1405.08,1018.66 1416.08,1037.66 1432.5,1053.5C 1439.17,1058.83 1445.83,1064.17 1452.5,1069.5C 1458.84,1073 1464.84,1077 1470.5,1081.5C 1481.66,1087.69 1492.99,1093.36 1504.5,1098.5C 1504.5,1099.5 1504.5,1100.5 1504.5,1101.5C 1469.83,1101.67 1435.17,1101.5 1400.5,1101C 1374.12,1071.73 1357.12,1037.57 1349.5,998.5C 1341.08,947.939 1351.74,901.939 1381.5,860.5C 1421.12,816.567 1469.45,802.9 1526.5,819.5C 1536.39,823.112 1545.72,827.779 1554.5,833.5C 1563.5,841.167 1572.5,848.833 1581.5,856.5C 1598.77,844.033 1617.77,835.033 1638.5,829.5C 1661.56,823.088 1684.9,818.088 1708.5,814.5C 1713.68,790.613 1718.34,766.613 1722.5,742.5C 1526.5,742.5 1330.5,742.5 1134.5,742.5C 1127.27,785.323 1119.27,827.989 1110.5,870.5C 1111.98,870.762 1113.31,870.429 1114.5,869.5C 1145.97,843.684 1181.97,833.684 1222.5,839.5C 1257.64,849.978 1279.98,872.978 1289.5,908.5C 1294.74,936.361 1292.74,963.694 1283.5,990.5C 1265.86,1030.78 1241.53,1066.45 1210.5,1097.5C 1206.5,1098.83 1202.5,1098.83 1198.5,1097.5C 1186.5,1087.5 1174.5,1077.5 1162.5,1067.5C 1161.31,1066.57 1159.98,1066.24 1158.5,1066.5C 1158.19,1063.75 1158.52,1061.09 1159.5,1058.5C 1190.83,1028.46 1216.83,994.46 1237.5,956.5C 1240.96,948.773 1243.63,940.773 1245.5,932.5C 1250.88,901.211 1237.88,887.544 1206.5,891.5C 1191.74,894.864 1177.74,900.197 1164.5,907.5C 1139.17,923.48 1116.17,942.48 1095.5,964.5C 1094.66,966.844 1093.33,968.844 1091.5,970.5C 1083.48,1014.28 1075.15,1057.95 1066.5,1101.5C 1047.83,1101.5 1029.17,1101.5 1010.5,1101.5C 1015.45,1074.43 1020.78,1047.43 1026.5,1020.5C 1025.02,1020.24 1023.69,1020.57 1022.5,1021.5C 977.533,1053.06 929.533,1058.4 878.5,1037.5C 857.689,1026.02 840.689,1010.36 827.5,990.5C 825.559,986.952 823.893,983.286 822.5,979.5C 821.354,945.85 821.187,912.183 822,878.5C 829.884,860.086 842.051,845.086 858.5,833.5C 890.247,812.477 925.247,802.811 963.5,804.5C 987.415,804.281 1011.08,806.614 1034.5,811.5C 1045.06,814.474 1055.72,816.807 1066.5,818.5C 1070.66,793.059 1075.32,767.726 1080.5,742.5C 994.167,742.5 907.833,742.5 821.5,742.5C 821.5,725.5 821.5,708.5 821.5,691.5 Z M 974.5,854.5 C 994.574,854.075 1014.57,855.075 1034.5,857.5C 1042.72,858.743 1050.72,860.743 1058.5,863.5C 1053.25,886.387 1048.25,909.387 1043.5,932.5C 1034.5,940.167 1025.5,947.833 1016.5,955.5C 994.842,972.332 970.842,984.999 944.5,993.5C 926.917,998.06 909.583,997.393 892.5,991.5C 874.908,982.673 865.575,968.34 864.5,948.5C 866.411,931.766 872.077,916.433 881.5,902.5C 895.702,886.297 912.702,873.963 932.5,865.5C 946.518,860.832 960.518,857.165 974.5,854.5 Z"/></g>
<g><path style="opacity:0.85" fill="#ecf2f2" d="M 754.5,702.5 C 756.46,705.177 757.96,708.177 759,711.5C 759.667,917.833 759.667,1124.17 759,1330.5C 757.768,1334.06 756.268,1337.39 754.5,1340.5C 754.5,1127.83 754.5,915.167 754.5,702.5 Z"/></g>
<g><path style="opacity:0.984" fill="#ebeff0" d="M 45.5,702.5 C 46.8333,914.833 46.8333,1127.17 45.5,1339.5C 44.6799,1337.86 43.8466,1336.19 43,1334.5C 42.3333,1125.83 42.3333,917.167 43,708.5C 43.5725,706.359 44.4058,704.359 45.5,702.5 Z"/></g>
<g><path style="opacity:1" fill="#c5c9d0" d="M 720.5,750.5 C 721.627,751.122 722.627,751.955 723.5,753C 641.173,754.322 558.839,754.822 476.5,754.5C 444.5,754.5 412.5,754.5 380.5,754.5C 313.166,754.667 245.833,754.5 178.5,754C 163.661,753.831 148.994,753.331 134.5,752.5C 296.167,752.667 457.834,752.5 619.5,752C 653.336,751.832 687.002,751.332 720.5,750.5 Z"/></g>
<g><path style="opacity:1" fill="#4c556f" d="M 380.5,755.5 C 380.5,755.167 380.5,754.833 380.5,754.5C 412.5,754.5 444.5,754.5 476.5,754.5C 464.011,755.495 451.344,755.829 438.5,755.5C 438.5,829.167 438.5,902.833 438.5,976.5C 438.167,976.5 437.833,976.5 437.5,976.5C 437.5,905.833 437.5,835.167 437.5,764.5C 437.5,763.5 437.5,762.5 437.5,761.5C 437.5,759.5 437.5,757.5 437.5,755.5C 418.5,755.5 399.5,755.5 380.5,755.5 Z"/></g>
<g><path style="opacity:1" fill="#f3f3f4" d="M 354.5,755.5 C 363.167,755.5 371.833,755.5 380.5,755.5C 399.5,755.5 418.5,755.5 437.5,755.5C 437.5,757.5 437.5,759.5 437.5,761.5C 409.833,761.5 382.167,761.5 354.5,761.5C 354.5,759.5 354.5,757.5 354.5,755.5 Z"/></g>
<g><path style="opacity:1" fill="#90f2b4" d="M 354.5,761.5 C 382.167,761.5 409.833,761.5 437.5,761.5C 437.5,762.5 437.5,763.5 437.5,764.5C 409.833,764.5 382.167,764.5 354.5,764.5C 354.5,763.5 354.5,762.5 354.5,761.5 Z"/></g>
<g><path style="opacity:1" fill="#646a7d" d="M 354.5,755.5 C 354.5,757.5 354.5,759.5 354.5,761.5C 354.5,762.5 354.5,763.5 354.5,764.5C 354.5,815.833 354.5,867.167 354.5,918.5C 353.508,918.672 352.842,918.338 352.5,917.5C 353.167,863.5 353.833,809.5 354.5,755.5 Z"/></g>
<g><path style="opacity:1" fill="#fdfdfd" d="M 354.5,764.5 C 382.167,764.5 409.833,764.5 437.5,764.5C 437.5,835.167 437.5,905.833 437.5,976.5C 436.828,979.908 437.828,982.575 440.5,984.5C 445.459,979.919 449.959,974.919 454,969.5C 495.971,907.363 538.138,845.363 580.5,783.5C 593.423,781.84 606.423,781.007 619.5,781C 642.498,780.5 665.498,780.333 688.5,780.5C 638.761,852.408 588.427,923.908 537.5,995C 537.989,996.138 538.322,997.305 538.5,998.5C 537.609,999.261 536.942,1000.26 536.5,1001.5C 573.763,1077.69 611.763,1153.36 650.5,1228.5C 655.97,1237.77 660.636,1247.44 664.5,1257.5C 666.032,1263.79 668.698,1269.46 672.5,1274.5C 676.535,1279.9 679.535,1285.9 681.5,1292.5C 682.933,1299.37 685.933,1305.37 690.5,1310.5C 694.207,1315.25 696.874,1320.58 698.5,1326.5C 662.214,1329.01 625.881,1330.01 589.5,1329.5C 552.058,1247.36 514.891,1165.03 478,1082.5C 465,1095.5 452,1108.5 439,1121.5C 438.515,1186.5 438.015,1251.5 437.5,1316.5C 436.833,1331.5 436.167,1346.5 435.5,1361.5C 408.23,1335.73 381.397,1309.4 355,1282.5C 354.5,1267.17 354.333,1251.84 354.5,1236.5C 354.833,1213.49 354.5,1190.49 353.5,1167.5C 352.893,1167.62 352.56,1167.96 352.5,1168.5C 246.319,1194.5 159.153,1165.16 91,1080.5C 55.7883,1030.02 51.455,977.02 78,921.5C 82.3656,916.305 86.8656,911.305 91.5,906.5C 135.944,863.138 188.278,849.972 248.5,867C 288.647,878.313 323.48,898.479 353,927.5C 354.289,924.649 354.789,921.649 354.5,918.5C 354.5,867.167 354.5,815.833 354.5,764.5 Z"/></g>
<g><path style="opacity:1" fill="#56dd8c" d="M 688.5,780.5 C 665.498,780.333 642.498,780.5 619.5,781C 606.423,781.007 593.423,781.84 580.5,783.5C 538.138,845.363 495.971,907.363 454,969.5C 449.959,974.919 445.459,979.919 440.5,984.5C 437.828,982.575 436.828,979.908 437.5,976.5C 437.833,976.5 438.167,976.5 438.5,976.5C 440.39,976.703 441.89,976.037 443,974.5C 446.76,969.317 450.76,964.317 455,959.5C 496.443,898.392 538.276,837.558 580.5,777C 614.509,775.093 648.509,775.427 682.5,778C 684.9,778.186 687.234,778.686 689.5,779.5C 689.376,780.107 689.043,780.44 688.5,780.5 Z"/></g>
<g><path style="opacity:1" fill="#58e28d" d="M 352.5,917.5 C 352.842,918.338 353.508,918.672 354.5,918.5C 354.789,921.649 354.289,924.649 353,927.5C 323.48,898.479 288.647,878.313 248.5,867C 188.278,849.972 135.944,863.138 91.5,906.5C 115.613,876.602 146.946,859.435 185.5,855C 218.095,852.21 249.428,857.21 279.5,870C 292.978,876.237 305.978,883.237 318.5,891C 329.995,899.666 341.329,908.5 352.5,917.5 Z"/></g>
<g><path style="opacity:1" fill="#0d2a56" d="M 354.5,1013.5 C 320.84,1073.18 269.506,1102.01 200.5,1100C 176.642,1100.24 157.975,1090.74 144.5,1071.5C 144.737,1070.21 144.404,1069.21 143.5,1068.5C 143.539,1065.91 142.539,1063.91 140.5,1062.5C 135.9,1010.18 156.9,972.348 203.5,949C 244.933,930.172 285.599,931.839 325.5,954C 346.566,968.298 356.232,988.131 354.5,1013.5 Z"/></g>
<g><path style="opacity:1" fill="#5ad98d" d="M 538.5,998.5 C 577.47,1074.44 614.803,1151.1 650.5,1228.5C 611.763,1153.36 573.763,1077.69 536.5,1001.5C 536.942,1000.26 537.609,999.261 538.5,998.5 Z"/></g>
<g><path style="opacity:1" fill="#62e993" d="M 354.5,1013.5 C 355.104,1020.56 353.271,1027.23 349,1033.5C 306.971,1092.41 250.137,1115.24 178.5,1102C 162.566,1096.9 151.233,1086.73 144.5,1071.5C 157.975,1090.74 176.642,1100.24 200.5,1100C 269.506,1102.01 320.84,1073.18 354.5,1013.5 Z"/></g>
<g><path style="opacity:1" fill="#7dd79f" d="M 140.5,1062.5 C 142.539,1063.91 143.539,1065.91 143.5,1068.5C 141.69,1067.59 140.69,1065.59 140.5,1062.5 Z"/></g>
<g><path style="opacity:0.9" fill="#0d2956" d="M 834.5,1141.5 C 842.507,1141.33 850.507,1141.5 858.5,1142C 865.109,1146.38 868.776,1152.55 869.5,1160.5C 870.167,1185.17 870.833,1209.83 871.5,1234.5C 892.5,1212.17 913.5,1189.83 934.5,1167.5C 942.681,1159.15 951.014,1150.99 959.5,1143C 968.424,1141.42 977.424,1141.09 986.5,1142C 995.45,1148.24 998.617,1156.74 996,1167.5C 994.061,1171.28 991.894,1174.95 989.5,1178.5C 971.2,1194.8 953.533,1211.8 936.5,1229.5C 959.501,1262.17 982.001,1295.17 1004,1328.5C 1006.38,1336.32 1007.05,1344.32 1006,1352.5C 1001.22,1360.68 994.049,1363.68 984.5,1361.5C 976.601,1362.73 969.601,1360.9 963.5,1356C 945.991,1329.16 928.491,1302.33 911,1275.5C 908.533,1271.23 906.366,1266.9 904.5,1262.5C 903.022,1262.24 901.689,1262.57 900.5,1263.5C 890.819,1273.35 880.986,1283.01 871,1292.5C 870.833,1309.18 870.333,1325.84 869.5,1342.5C 868.776,1350.45 865.109,1356.62 858.5,1361C 850.833,1361.67 843.167,1361.67 835.5,1361C 828.491,1357.67 824.658,1352.17 824,1344.5C 823.333,1282.5 823.333,1220.5 824,1158.5C 824.554,1150.82 828.054,1145.16 834.5,1141.5 Z"/></g>
<g><path style="opacity:0.89" fill="#0d2956" d="M 1930.5,1146.5 C 1937.2,1146.17 1943.87,1146.5 1950.5,1147.5C 1957.77,1151.58 1961.43,1157.92 1961.5,1166.5C 1962.5,1179.15 1962.83,1191.82 1962.5,1204.5C 1970.53,1204.17 1978.53,1204.5 1986.5,1205.5C 1991.34,1208.87 1993.34,1213.54 1992.5,1219.5C 1993.88,1226.56 1991.22,1231.23 1984.5,1233.5C 1977.12,1234.34 1969.78,1235.34 1962.5,1236.5C 1962.17,1265.17 1962.5,1293.84 1963.5,1322.5C 1964.25,1324.33 1965.25,1326 1966.5,1327.5C 1976.66,1328.37 1986.66,1328.37 1996.5,1327.5C 2003.33,1330.15 2006.33,1335.15 2005.5,1342.5C 2006.23,1349.88 2003.23,1355.04 1996.5,1358C 1993.29,1359.4 1989.96,1360.4 1986.5,1361C 1972.5,1361.67 1958.5,1361.67 1944.5,1361C 1934.54,1359.59 1927.37,1354.42 1923,1345.5C 1921.52,1340.58 1920.35,1335.58 1919.5,1330.5C 1918.5,1299.17 1918.17,1267.84 1918.5,1236.5C 1913.69,1235.13 1908.69,1234.29 1903.5,1234C 1897.75,1230.88 1895.42,1226.05 1896.5,1219.5C 1895.12,1212.44 1897.78,1207.77 1904.5,1205.5C 1909.12,1204.51 1913.79,1204.17 1918.5,1204.5C 1918.17,1189.82 1918.5,1175.15 1919.5,1160.5C 1921.32,1154.35 1924.99,1149.68 1930.5,1146.5 Z"/></g>
<g><path style="opacity:1" fill="#727787" d="M 352.5,1168.5 C 352.56,1167.96 352.893,1167.62 353.5,1167.5C 354.5,1190.49 354.833,1213.49 354.5,1236.5C 353.833,1213.83 353.167,1191.17 352.5,1168.5 Z"/></g>
<g><path style="opacity:0.874" fill="#0d2956" d="M 1612.5,1198.5 C 1626.52,1198.17 1640.52,1198.5 1654.5,1199.5C 1678.09,1204.58 1694.59,1218.25 1704,1240.5C 1708.44,1252.06 1709.61,1264.06 1707.5,1276.5C 1706.26,1279.74 1704.6,1282.74 1702.5,1285.5C 1699.19,1287.19 1695.86,1288.69 1692.5,1290C 1661.34,1292.35 1630,1293.19 1598.5,1292.5C 1599.97,1306.44 1605.97,1318.11 1616.5,1327.5C 1619.17,1328.83 1621.83,1330.17 1624.5,1331.5C 1638.65,1335.03 1651.32,1332.36 1662.5,1323.5C 1668.87,1317.13 1675.53,1311.13 1682.5,1305.5C 1700.27,1300.93 1708.1,1307.6 1706,1325.5C 1699.61,1341.06 1688.44,1351.72 1672.5,1357.5C 1667.99,1359.29 1663.32,1360.46 1658.5,1361C 1641.13,1361.91 1623.79,1361.58 1606.5,1360C 1576.5,1349.32 1559.33,1328.16 1555,1296.5C 1550.12,1266.06 1557.62,1239.39 1577.5,1216.5C 1588.07,1208.05 1599.74,1202.05 1612.5,1198.5 Z M 1622.5,1230.5 C 1629.17,1230.33 1635.84,1230.5 1642.5,1231C 1651.5,1233.83 1657.84,1239.67 1661.5,1248.5C 1663.72,1254.37 1665.38,1260.37 1666.5,1266.5C 1643.82,1266.83 1621.16,1266.5 1598.5,1265.5C 1600.64,1253.89 1605.97,1243.89 1614.5,1235.5C 1617.63,1234.28 1620.3,1232.62 1622.5,1230.5 Z"/></g>
<g><path style="opacity:0.875" fill="#0d2956" d="M 1787.5,1198.5 C 1801.85,1198.17 1816.18,1198.5 1830.5,1199.5C 1851.71,1203.62 1867.37,1215.28 1877.5,1234.5C 1882.33,1259.68 1872.66,1268.68 1848.5,1261.5C 1843.92,1256 1839.59,1250.34 1835.5,1244.5C 1825.57,1233.27 1813.24,1229.6 1798.5,1233.5C 1784.19,1240.06 1775.69,1251.06 1773,1266.5C 1772.17,1276.52 1772.33,1286.52 1773.5,1296.5C 1779.64,1321.31 1795.31,1331.65 1820.5,1327.5C 1827.98,1324.02 1834.32,1319.02 1839.5,1312.5C 1843.23,1304.15 1848.89,1297.65 1856.5,1293C 1860.83,1292.33 1865.17,1292.33 1869.5,1293C 1871.53,1294.88 1873.86,1296.05 1876.5,1296.5C 1876.58,1298.93 1877.58,1300.93 1879.5,1302.5C 1881.86,1313.13 1880.53,1323.13 1875.5,1332.5C 1864.72,1348.56 1849.72,1358.06 1830.5,1361C 1813.13,1361.91 1795.79,1361.58 1778.5,1360C 1750.04,1350.2 1733.54,1330.37 1729,1300.5C 1726.13,1278.51 1728.8,1257.51 1737,1237.5C 1746.6,1219.89 1760.77,1207.72 1779.5,1201C 1781.83,1200.67 1784.17,1200.33 1786.5,1200C 1787.06,1199.62 1787.39,1199.12 1787.5,1198.5 Z"/></g>
<g><path style="opacity:0.887" fill="#0d2956" d="M 1075.5,1200.5 C 1089.85,1200.17 1104.18,1200.5 1118.5,1201.5C 1139.87,1206.22 1156.21,1217.89 1167.5,1236.5C 1169.61,1241.62 1171.77,1246.62 1174,1251.5C 1175.69,1261.57 1177.19,1271.57 1178.5,1281.5C 1177.21,1291.53 1175.71,1301.53 1174,1311.5C 1160.79,1347.37 1134.96,1364.04 1096.5,1361.5C 1051.95,1362.44 1025.45,1341.11 1017,1297.5C 1014.66,1278.51 1016.82,1260.17 1023.5,1242.5C 1033.96,1220.52 1050.96,1207.02 1074.5,1202C 1075.06,1201.62 1075.39,1201.12 1075.5,1200.5 Z M 1086.5,1234.5 C 1106.53,1231.01 1120.86,1238.35 1129.5,1256.5C 1136.41,1274.78 1135.75,1292.78 1127.5,1310.5C 1116.58,1328.12 1101.25,1333.29 1081.5,1326C 1066.39,1315.24 1059.39,1300.41 1060.5,1281.5C 1060.59,1274.36 1061.59,1267.36 1063.5,1260.5C 1065.49,1253.85 1068.49,1247.85 1072.5,1242.5C 1073.55,1242.65 1074.55,1242.48 1075.5,1242C 1078.89,1238.73 1082.55,1236.23 1086.5,1234.5 Z"/></g>
<g><path style="opacity:0.896" fill="#0d2956" d="M 1212.5,1200.5 C 1219.17,1200.33 1225.84,1200.5 1232.5,1201C 1238.85,1204.18 1242.35,1209.34 1243,1216.5C 1243.69,1217.36 1244.52,1218.02 1245.5,1218.5C 1263.85,1201.37 1285.52,1195.7 1310.5,1201.5C 1329.25,1206.75 1341.08,1218.75 1346,1237.5C 1346.83,1275.17 1346.67,1312.84 1345.5,1350.5C 1343.95,1353.99 1341.95,1357.16 1339.5,1360C 1331.24,1361.57 1322.91,1361.91 1314.5,1361C 1310.59,1358.26 1307.59,1354.76 1305.5,1350.5C 1304.83,1321.17 1304.17,1291.83 1303.5,1262.5C 1303.81,1250.34 1298.81,1241.17 1288.5,1235C 1269.36,1231.52 1256.19,1238.69 1249,1256.5C 1248.82,1259.23 1248.32,1261.89 1247.5,1264.5C 1246.83,1291.83 1246.17,1319.17 1245.5,1346.5C 1243.51,1358.49 1236.51,1363.49 1224.5,1361.5C 1220.47,1361.43 1216.47,1361.1 1212.5,1360.5C 1210.54,1359.55 1208.88,1358.21 1207.5,1356.5C 1205.81,1353.19 1204.31,1349.86 1203,1346.5C 1202.17,1302.5 1202.33,1258.5 1203.5,1214.5C 1204.69,1208.45 1207.69,1203.78 1212.5,1200.5 Z"/></g>
<g><path style="opacity:0.896" fill="#0d2956" d="M 1392.5,1200.5 C 1399.17,1200.33 1405.84,1200.5 1412.5,1201C 1418.85,1204.18 1422.35,1209.34 1423,1216.5C 1423.69,1217.36 1424.52,1218.02 1425.5,1218.5C 1443.85,1201.37 1465.52,1195.7 1490.5,1201.5C 1509.25,1206.75 1521.08,1218.75 1526,1237.5C 1526.83,1275.17 1526.67,1312.84 1525.5,1350.5C 1523.95,1353.99 1521.95,1357.16 1519.5,1360C 1511.24,1361.57 1502.91,1361.91 1494.5,1361C 1490.59,1358.26 1487.59,1354.76 1485.5,1350.5C 1484.83,1321.17 1484.17,1291.83 1483.5,1262.5C 1483.81,1250.34 1478.81,1241.17 1468.5,1235C 1449.36,1231.52 1436.19,1238.69 1429,1256.5C 1428.82,1259.23 1428.32,1261.89 1427.5,1264.5C 1426.83,1291.83 1426.17,1319.17 1425.5,1346.5C 1423.51,1358.49 1416.51,1363.49 1404.5,1361.5C 1400.47,1361.43 1396.47,1361.1 1392.5,1360.5C 1390.54,1359.55 1388.88,1358.21 1387.5,1356.5C 1385.81,1353.19 1384.31,1349.86 1383,1346.5C 1382.17,1302.5 1382.33,1258.5 1383.5,1214.5C 1384.69,1208.45 1387.69,1203.78 1392.5,1200.5 Z"/></g>
<g><path style="opacity:1" fill="#67cb92" d="M 664.5,1257.5 C 669.014,1262.2 671.681,1267.87 672.5,1274.5C 668.698,1269.46 666.032,1263.79 664.5,1257.5 Z"/></g>
<g><path style="opacity:1" fill="#6bc694" d="M 681.5,1292.5 C 685.54,1297.91 688.54,1303.91 690.5,1310.5C 685.933,1305.37 682.933,1299.37 681.5,1292.5 Z"/></g>
<g><path style="opacity:1" fill="#939fac" d="M 698.5,1326.5 C 699.812,1327.15 700.812,1328.15 701.5,1329.5C 664.011,1332.16 626.677,1332.16 589.5,1329.5C 625.881,1330.01 662.214,1329.01 698.5,1326.5 Z"/></g>
<g><path style="opacity:1" fill="#bfc0c6" d="M 437.5,1316.5 C 437.833,1331.85 437.499,1347.18 436.5,1362.5C 435.893,1362.38 435.56,1362.04 435.5,1361.5C 436.167,1346.5 436.833,1331.5 437.5,1316.5 Z"/></g>
<g><path style="opacity:0.999" fill="#3cac78" d="M 727.5,1371.5 C 727.5,1372.17 727.167,1372.5 726.5,1372.5C 714.175,1373.09 701.842,1373.43 689.5,1373.5C 484.667,1372.33 280.001,1372.33 75.5,1373.5C 74.5,1373.17 73.8333,1372.5 73.5,1371.5C 291.5,1370.17 509.5,1370.17 727.5,1371.5 Z"/></g>
<g><path style="opacity:0.952" fill="#5cf291" d="M 75.5,1373.5 C 280.001,1372.33 484.667,1372.33 689.5,1373.5C 628.004,1375.63 566.337,1377.46 504.5,1379C 500.312,1379.18 496.312,1379.68 492.5,1380.5C 431.167,1380.5 369.833,1380.5 308.5,1380.5C 232.349,1377.65 156.016,1375.65 79.5,1374.5C 78.0413,1374.57 76.7079,1374.23 75.5,1373.5 Z"/></g>
<g><path style="opacity:0.78" fill="#edfcf1" d="M 726.5,1372.5 C 721.392,1376.04 715.726,1378.54 709.5,1380C 637.167,1380.5 564.834,1380.67 492.5,1380.5C 496.312,1379.68 500.312,1379.18 504.5,1379C 566.337,1377.46 628.004,1375.63 689.5,1373.5C 701.842,1373.43 714.175,1373.09 726.5,1372.5 Z"/></g>
<g><path style="opacity:0.764" fill="#effdf3" d="M 79.5,1374.5 C 156.016,1375.65 232.349,1377.65 308.5,1380.5C 235.833,1380.67 163.166,1380.5 90.5,1380C 86.4933,1378.66 82.8267,1376.83 79.5,1374.5 Z"/></g>
</svg>
