<?xml version="1.0" encoding="UTF-8"?>
<!DOCTYPE svg PUBLIC "-//W3C//DTD SVG 1.1//EN" "http://www.w3.org/Graphics/SVG/1.1/DTD/svg11.dtd">
<svg xmlns="http://www.w3.org/2000/svg" version="1.1" width="500px" height="500px" style="shape-rendering:geometricPrecision; text-rendering:geometricPrecision; image-rendering:optimizeQuality; fill-rule:evenodd; clip-rule:evenodd" xmlns:xlink="http://www.w3.org/1999/xlink">
<g><path style="opacity:1" fill="#0c2c56" d="M 34.5,-0.5 C 177.833,-0.5 321.167,-0.5 464.5,-0.5C 479.837,3.50425 490.504,12.8376 496.5,27.5C 496.5,175.5 496.5,323.5 496.5,471.5C 493.01,481.321 486.677,488.654 477.5,493.5C 325.5,493.5 173.5,493.5 21.5,493.5C 12.2861,488.622 5.95278,481.288 2.5,471.5C 2.5,323.5 2.5,175.5 2.5,27.5C 8.55412,12.7724 19.2208,3.43905 34.5,-0.5 Z"/></g>
<g><path style="opacity:1" fill="#5bf392" d="M 31.5,11.5 C 168.333,10.3339 305.333,10.1673 442.5,11C 443.252,11.6708 443.586,12.5041 443.5,13.5C 441.254,12.8934 438.921,12.56 436.5,12.5C 301.486,16.7777 166.486,16.4444 31.5,11.5 Z"/></g>
<g><path style="opacity:1" fill="#fefefe" d="M 31.5,11.5 C 166.486,16.4444 301.486,16.7777 436.5,12.5C 438.921,12.56 441.254,12.8934 443.5,13.5C 444.338,13.8417 444.672,14.5084 444.5,15.5C 445.383,18.7043 447.05,21.3709 449.5,23.5C 457.997,35.821 465.997,48.4876 473.5,61.5C 337.334,62.4996 201.001,62.8329 64.5,62.5C 53.7491,45.3298 42.7491,28.3298 31.5,11.5 Z"/></g>
<g><path style="opacity:1" fill="#61dc93" d="M 444.5,15.5 C 446.95,17.6291 448.617,20.2957 449.5,23.5C 447.05,21.3709 445.383,18.7043 444.5,15.5 Z"/></g>
<g><path style="opacity:0.99" fill="#f1f4f5" d="M 2.5,27.5 C 2.5,175.5 2.5,323.5 2.5,471.5C 1.3485,469.221 0.348502,466.888 -0.5,464.5C -0.5,321.167 -0.5,177.833 -0.5,34.5C 0.348502,32.1124 1.3485,29.7791 2.5,27.5 Z"/></g>
<g><path style="opacity:0.99" fill="#edf2f3" d="M 496.5,27.5 C 497.651,29.7791 498.651,32.1124 499.5,34.5C 499.5,177.833 499.5,321.167 499.5,464.5C 498.651,466.888 497.651,469.221 496.5,471.5C 496.5,323.5 496.5,175.5 496.5,27.5 Z"/></g>
<g><path style="opacity:1" fill="#d1d6dd" d="M 473.5,61.5 C 474.043,61.56 474.376,61.8933 474.5,62.5C 337.667,63.8325 201.001,63.8325 64.5,62.5C 201.001,62.8329 337.334,62.4996 473.5,61.5 Z"/></g>
<g><path style="opacity:1" fill="#fcfcfc" d="M 275.5,68.5 C 256.167,68.5 236.833,68.5 217.5,68.5C 217.5,67.1667 217.5,65.8333 217.5,64.5C 236.833,64.5 256.167,64.5 275.5,64.5C 275.5,65.8333 275.5,67.1667 275.5,68.5 Z"/></g>
<g><path style="opacity:1" fill="#91f6b6" d="M 217.5,68.5 C 236.833,68.5 256.167,68.5 275.5,68.5C 275.5,69.1667 275.5,69.8333 275.5,70.5C 256.167,70.5 236.833,70.5 217.5,70.5C 217.5,69.8333 217.5,69.1667 217.5,68.5 Z"/></g>
<g><path style="opacity:1" fill="#fefefe" d="M 217.5,70.5 C 236.833,70.5 256.167,70.5 275.5,70.5C 275.5,119.833 275.5,169.167 275.5,218.5C 275.051,220.977 275.717,222.977 277.5,224.5C 280.491,221.339 283.325,218.005 286,214.5C 315.833,170.667 345.667,126.833 375.5,83C 400.49,81.9447 425.49,81.4447 450.5,81.5C 415.774,131.732 380.441,181.565 344.5,231C 345.252,231.671 345.586,232.504 345.5,233.5C 345.196,234.15 344.863,234.817 344.5,235.5C 349.939,246.044 355.106,256.711 360,267.5C 383.561,314.956 407.395,362.289 431.5,409.5C 432.674,410.514 433.34,411.847 433.5,413.5C 434.71,418.251 436.71,422.584 439.5,426.5C 442.008,430.182 444.008,434.182 445.5,438.5C 446.793,443.753 449.126,448.419 452.5,452.5C 454.674,455.515 456.341,458.849 457.5,462.5C 432.522,464.491 407.189,465.157 381.5,464.5C 355.391,407.026 329.558,349.359 304,291.5C 294.667,300.833 285.333,310.167 276,319.5C 275.667,375.5 275.333,431.5 275,487.5C 255.695,469.195 236.695,450.529 218,431.5C 217.5,404.835 217.333,378.169 217.5,351.5C 145.172,370.058 85.0051,351.058 37,294.5C 11.8229,261.773 6.48961,226.107 21,187.5C 23.5377,181.733 27.0377,176.733 31.5,172.5C 60.2212,141.874 95.2212,131.04 136.5,140C 167.565,147.444 194.399,162.277 217,184.5C 217.495,182.527 217.662,180.527 217.5,178.5C 217.5,142.5 217.5,106.5 217.5,70.5 Z"/></g>
<g><path style="opacity:1" fill="#58eb8f" d="M 217.5,178.5 C 217.662,180.527 217.495,182.527 217,184.5C 194.399,162.277 167.565,147.444 136.5,140C 95.2212,131.04 60.2212,141.874 31.5,172.5C 46.5021,152.98 66.1687,140.48 90.5,135C 116.003,130.976 140.669,133.976 164.5,144C 174.151,148.491 183.485,153.491 192.5,159C 201.014,165.357 209.347,171.857 217.5,178.5 Z"/></g>
<g><path style="opacity:1" fill="#58e88f" d="M 450.5,81.5 C 425.49,81.4447 400.49,81.9447 375.5,83C 345.667,126.833 315.833,170.667 286,214.5C 283.325,218.005 280.491,221.339 277.5,224.5C 275.717,222.977 275.051,220.977 275.5,218.5C 276.552,218.649 277.552,218.483 278.5,218C 281.333,214.5 284.167,211 287,207.5C 316.377,164.58 345.877,121.746 375.5,79C 400.865,78.1055 426.198,78.6055 451.5,80.5C 451.376,81.1067 451.043,81.44 450.5,81.5 Z"/></g>
<g><path style="opacity:1" fill="#0c2c56" d="M 218.5,242.5 C 208.208,263.296 192.875,279.463 172.5,291C 147.541,304.911 121.208,308.578 93.5,302C 83.5463,298.534 75.8796,292.367 70.5,283.5C 70.5979,281.447 69.9313,279.78 68.5,278.5C 64.7434,244.847 77.4101,219.347 106.5,202C 136.566,185.566 166.566,185.566 196.5,202C 211.082,211.669 218.415,225.169 218.5,242.5 Z"/></g>
<g><path style="opacity:1" fill="#57ed8f" d="M 218.5,242.5 C 218.521,247.938 217.021,252.938 214,257.5C 184.833,298.89 145.333,315.056 95.5,306C 83.4504,302.442 75.117,294.942 70.5,283.5C 75.8796,292.367 83.5463,298.534 93.5,302C 121.208,308.578 147.541,304.911 172.5,291C 192.875,279.463 208.208,263.296 218.5,242.5 Z"/></g>
<g><path style="opacity:1" fill="#59dc8e" d="M 68.5,278.5 C 69.9313,279.78 70.5979,281.447 70.5,283.5C 69.0687,282.22 68.4021,280.553 68.5,278.5 Z"/></g>
<g><path style="opacity:1" fill="#5be590" d="M 345.5,233.5 C 375.116,291.667 403.782,350.333 431.5,409.5C 407.395,362.289 383.561,314.956 360,267.5C 355.106,256.711 349.939,246.044 344.5,235.5C 344.863,234.817 345.196,234.15 345.5,233.5 Z"/></g>
<g><path style="opacity:1" fill="#6ae099" d="M 433.5,413.5 C 436.29,417.416 438.29,421.749 439.5,426.5C 436.71,422.584 434.71,418.251 433.5,413.5 Z"/></g>
<g><path style="opacity:1" fill="#6ed99a" d="M 445.5,438.5 C 448.341,442.849 450.674,447.516 452.5,452.5C 449.126,448.419 446.793,443.753 445.5,438.5 Z"/></g>
<g><path style="opacity:1" fill="#a0aeb9" d="M 457.5,462.5 C 458.478,462.811 459.145,463.478 459.5,464.5C 433.336,465.829 407.336,465.829 381.5,464.5C 407.189,465.157 432.522,464.491 457.5,462.5 Z"/></g>
<g><path style="opacity:1" fill="#41bc7e" d="M 21.5,493.5 C 173.5,493.5 325.5,493.5 477.5,493.5C 477.5,494.167 477.167,494.5 476.5,494.5C 471.493,494.751 466.493,495.084 461.5,495.5C 315.668,494.5 169.668,494.167 23.5,494.5C 22.5084,494.672 21.8417,494.338 21.5,493.5 Z"/></g>
<g><path style="opacity:1" fill="#5af391" d="M 23.5,494.5 C 169.668,494.167 315.668,494.5 461.5,495.5C 412.004,496.765 362.671,498.098 313.5,499.5C 270.833,499.5 228.167,499.5 185.5,499.5C 132.327,498.204 78.9937,496.871 25.5,495.5C 24.5084,495.672 23.8417,495.338 23.5,494.5 Z"/></g>
<g><path style="opacity:0.97" fill="#f2fef6" d="M 25.5,495.5 C 78.9937,496.871 132.327,498.204 185.5,499.5C 135.167,499.5 84.8333,499.5 34.5,499.5C 31.3448,498.558 28.3448,497.224 25.5,495.5 Z"/></g>
<g><path style="opacity:0.971" fill="#f4fef7" d="M 476.5,494.5 C 472.651,496.56 468.651,498.227 464.5,499.5C 414.167,499.5 363.833,499.5 313.5,499.5C 362.671,498.098 412.004,496.765 461.5,495.5C 466.493,495.084 471.493,494.751 476.5,494.5 Z"/></g>
</svg>
